<?xml version="1.0" standalone="no"?>
<!DOCTYPE svg PUBLIC "-//W3C//DTD SVG 20010904//EN"
 "http://www.w3.org/TR/2001/REC-SVG-20010904/DTD/svg10.dtd">
<svg version="1.0" xmlns="http://www.w3.org/2000/svg"
 width="768.000000pt" height="768.000000pt" viewBox="0 0 768.000000 768.000000"
 preserveAspectRatio="xMidYMid meet">
<metadata>
Created by potrace 1.14, written by Peter Selinger 2001-2017
</metadata>
<g transform="translate(0.000000,768.000000) scale(0.100000,-0.100000)"
fill="#000000" stroke="none">
<path d="M6539 6896 c-2 -2 -24 -6 -49 -9 -53 -7 -208 -34 -262 -46 -20 -5
-39 -7 -41 -5 -20 20 -77 -139 -77 -216 0 -60 38 -120 102 -163 70 -45 99 -96
104 -179 6 -111 -4 -120 -136 -134 -36 -3 -72 -7 -80 -9 -8 -1 -46 -6 -85 -10
-38 -4 -79 -9 -90 -11 -84 -17 -536 -24 -680 -11 -125 12 -176 18 -225 28 -25
5 -54 11 -65 13 -102 21 -244 27 -290 11 -51 -18 -75 -38 -121 -103 -63 -87
-86 -109 -129 -127 -42 -18 -262 -34 -252 -18 10 16 21 132 22 218 0 99 -29
166 -85 196 -58 32 -139 18 -178 -30 -51 -64 -89 -151 -86 -201 2 -48 54 -182
75 -195 16 -11 10 -35 -9 -35 -41 0 -114 -34 -152 -71 -68 -66 -81 -110 -83
-281 -2 -140 -3 -148 -22 -149 -11 0 -33 -2 -50 -4 -16 -2 -50 -7 -75 -10 -25
-3 -58 -8 -75 -10 -51 -8 -98 -14 -155 -20 -30 -3 -73 -8 -95 -11 -22 -3 -60
-7 -85 -9 -44 -5 -76 -9 -175 -21 -27 -3 -61 -7 -75 -9 -14 -1 -52 -6 -85 -10
-33 -5 -71 -9 -85 -10 -14 0 -30 -4 -35 -7 -6 -3 -24 -9 -41 -12 -92 -20 -121
-146 -69 -303 67 -200 199 -397 405 -603 165 -165 278 -240 436 -291 62 -20
83 -32 84 -49 0 -3 -22 -6 -48 -7 -83 -1 -241 -63 -362 -141 l-55 -35 -142 -3
c-255 -5 -326 -17 -381 -68 -98 -90 -86 -281 18 -301 12 -2 24 -6 27 -8 3 -4
11 -318 13 -504 l0 -53 40 0 40 0 1 53 c1 91 -1 190 -7 252 -10 129 -13 151
-19 190 -3 22 -8 46 -10 53 -2 6 -1 12 3 13 165 23 299 25 1002 18 230 -2 308
0 490 16 395 35 850 49 1030 31 41 -4 116 -9 165 -11 50 -3 92 -4 95 -5 3 0 5
-15 4 -32 -3 -42 -14 -183 -19 -228 -4 -41 -7 -116 -6 -145 1 -18 7 -20 51
-17 27 2 51 7 51 10 6 30 18 198 24 331 2 51 5 94 7 95 120 51 157 120 113
205 -28 55 -89 75 -220 72 -172 -4 -235 -4 -302 0 -61 3 -63 4 -63 30 0 18
-10 35 -27 49 -37 29 -236 124 -295 141 -27 7 -48 16 -48 19 0 3 17 12 38 19
282 102 519 335 706 696 126 242 148 465 57 569 -40 45 -148 63 -390 65 -108
0 -218 3 -246 5 -27 3 -95 8 -150 11 -55 3 -131 7 -170 10 -38 2 -103 5 -142
6 -45 1 -73 6 -74 13 -4 74 -17 165 -35 257 -4 22 -1 25 23 26 103 3 229 21
278 39 38 15 79 52 112 101 19 28 85 58 147 68 27 4 99 6 160 5 343 -7 600 1
1126 35 146 10 240 14 385 15 160 3 226 16 263 54 23 22 27 35 27 82 0 46 -4
58 -24 73 -22 17 -23 22 -17 89 4 40 11 83 16 97 5 14 7 25 4 25 -3 0 6 15 20
33 14 19 50 46 79 61 81 41 113 114 123 281 6 110 -2 129 -63 145 -41 12 -344
25 -354 16z m274 -110 c12 -3 27 -5 33 -5 11 -1 11 -16 -2 -106 -4 -27 -7 -53
-6 -57 1 -5 -42 -8 -95 -9 -108 0 -164 -3 -298 -15 -49 -4 -117 -8 -150 -8
l-60 -1 -12 38 c-22 65 14 124 79 133 18 3 58 9 88 15 30 5 93 12 140 15 47 4
86 7 87 8 4 3 173 -4 196 -8z m-93 -293 c0 -1 -13 -21 -29 -45 -16 -24 -31
-52 -34 -63 -8 -25 -25 -117 -31 -160 -7 -60 -7 -60 -129 -60 l-114 0 15 35
c9 20 15 65 15 105 0 57 -5 81 -27 125 -15 30 -31 57 -36 60 -4 3 77 5 181 5
104 0 189 -1 189 -2z m-2641 -297 c11 -19 11 -151 1 -176 -1 -3 -2 -8 -1 -12
2 -17 -22 -114 -33 -128 -24 -33 -47 -17 -72 49 -33 88 -38 116 -35 199 2 73
110 125 140 68z m2541 -135 c0 -13 -16 -22 -59 -32 -39 -10 -599 -25 -591 -16
5 5 83 15 170 23 19 2 51 5 70 8 19 3 80 8 135 12 55 3 101 7 102 8 9 8 173 5
173 -3z m-1692 -15 c7 -4 86 -15 152 -21 19 -2 53 -6 75 -9 93 -11 183 -20
222 -20 23 0 40 -3 37 -6 -3 -3 -135 -5 -292 -6 -158 0 -303 -4 -322 -8 -116
-23 -166 -48 -196 -97 -5 -8 -23 -25 -40 -37 -56 -39 -237 -73 -248 -47 -3 9
7 13 32 14 20 0 47 3 60 6 12 3 32 7 44 10 42 9 97 57 143 126 63 95 95 110
228 104 54 -2 101 -6 105 -9z m-870 -284 c8 -6 -1 -9 -25 -11 -47 -2 -85 -6
-145 -16 -27 -4 -48 -5 -48 -1 0 23 188 47 218 28z m107 -230 c0 -78 -2 -142
-5 -143 -3 0 -72 -2 -155 -4 -82 -2 -180 -6 -217 -9 -76 -7 -76 -7 -54 59 12
36 28 144 28 187 -1 10 10 19 26 22 118 24 197 33 292 31 l85 -1 0 -142z
m1168 -345 c26 -22 52 -101 42 -129 -2 -7 -6 -29 -9 -50 -5 -34 -37 -126 -54
-158 -5 -8 -24 -42 -42 -74 -39 -70 -188 -293 -237 -353 -156 -194 -362 -316
-603 -359 -14 -3 -31 -7 -39 -9 -24 -9 -164 -19 -271 -19 -125 0 -246 9 -380
30 -25 4 -52 8 -60 9 -54 8 -217 47 -271 65 -164 55 -338 185 -477 358 -20 26
-39 49 -42 52 -3 3 -21 25 -40 50 -19 25 -37 47 -41 50 -3 3 -26 39 -50 80
-189 315 -130 438 204 423 244 -11 728 -6 1112 12 183 9 299 14 440 21 77 4
188 8 247 8 60 1 108 3 108 6 0 3 98 6 219 7 213 3 219 2 244 -20z m-1689
-1217 c60 -11 135 -23 165 -26 31 -3 70 -7 86 -9 17 -3 77 -7 135 -10 58 -4
111 -8 118 -10 6 -3 12 -1 12 3 0 4 26 7 58 7 86 1 229 19 240 30 3 2 44 -16
93 -41 79 -39 113 -52 234 -84 81 -21 82 -28 5 -29 -41 -1 -100 -4 -130 -7
-30 -3 -271 -7 -535 -9 -264 -2 -509 -6 -545 -10 -108 -10 -332 -16 -369 -9
l-35 7 51 23 c75 33 180 97 243 149 30 25 57 45 60 45 3 0 54 -9 114 -20z
m-589 -280 c69 -25 200 -30 435 -16 74 5 141 8 148 7 6 0 24 0 40 0 226 1 432
-1 582 -6 102 -4 309 -8 460 -10 151 -1 329 -6 395 -10 66 -4 169 -8 229 -9
113 -1 140 -12 90 -35 -15 -6 -54 -11 -88 -11 -376 7 -857 0 -1021 -15 -22 -2
-83 -6 -135 -10 -52 -3 -115 -8 -140 -11 -121 -14 -210 -16 -805 -18 -352 -1
-657 1 -677 6 -49 11 -50 36 -2 78 45 39 109 67 172 76 26 3 48 7 49 8 2 2 49
2 105 0 78 -1 118 -7 163 -24z"/>
<path d="M301 2475 c-243 -88 -357 -361 -253 -605 32 -75 115 -164 187 -199
129 -64 312 -60 491 10 l52 20 -12 47 c-7 26 -12 82 -11 125 2 84 7 92 58 104
15 3 30 9 32 13 8 13 -6 40 -17 34 -6 -4 -75 -6 -154 -6 -118 1 -144 -1 -144
-13 0 -18 10 -24 49 -27 53 -4 63 -24 65 -142 2 -57 0 -110 -4 -116 -26 -42
-217 -48 -296 -10 -152 74 -242 292 -194 471 16 59 54 131 90 173 28 31 102
75 140 84 60 12 168 -2 215 -28 51 -29 63 -42 94 -107 24 -49 29 -54 42 -41
17 17 19 162 3 177 -5 5 -40 16 -79 24 -177 40 -268 43 -354 12z"/>
<path d="M6288 2494 c-2 -2 -119 -5 -259 -8 -139 -2 -257 -5 -261 -5 -4 -1 -5
-8 -2 -16 4 -8 26 -20 49 -26 30 -8 45 -17 49 -32 10 -38 7 -674 -3 -701 -8
-20 -19 -27 -51 -32 -30 -5 -40 -11 -40 -25 0 -17 16 -18 270 -18 148 -1 273
-1 277 -2 39 -6 53 3 64 44 7 23 13 44 14 47 0 3 11 31 23 63 12 32 22 60 22
63 0 3 -12 4 -27 2 -16 -2 -26 -5 -24 -8 5 -6 -31 -76 -53 -103 -24 -31 -84
-45 -201 -46 -154 -2 -147 -10 -150 178 -1 85 2 154 7 157 13 8 167 8 205 0
26 -6 33 -14 40 -43 8 -34 35 -64 48 -52 8 9 9 249 1 257 -8 8 -41 -11 -41
-24 -2 -28 -20 -56 -40 -64 -37 -14 -212 -12 -218 3 -2 7 -4 79 -3 160 1 119
4 150 16 157 22 14 228 12 267 -2 25 -9 39 -24 56 -60 14 -29 29 -47 40 -48 9
0 17 3 17 7 0 12 -32 168 -36 172 -5 5 -52 10 -56 5z"/>
<path d="M1281 2482 c-12 -4 -15 -32 -3 -33 66 -6 92 -24 93 -62 4 -133 3
-647 -1 -667 -5 -18 -18 -29 -51 -41 -24 -9 -45 -23 -47 -31 -2 -13 23 -15
166 -15 144 1 169 3 168 16 -2 8 -23 20 -48 28 -25 7 -51 19 -57 27 -13 15
-19 295 -7 314 3 5 21 9 40 10 45 2 68 -21 165 -161 40 -59 91 -123 114 -143
50 -46 131 -83 194 -90 26 -3 53 -7 60 -9 6 -2 14 3 17 11 10 25 7 34 -9 34
-43 0 -151 84 -220 170 -47 59 -76 100 -70 100 3 0 -6 17 -20 37 -34 50 -31
64 16 93 50 31 88 79 104 134 12 41 12 49 0 114 -9 46 -75 115 -138 143 -49
22 -65 23 -253 24 -111 1 -206 -1 -213 -3z m449 -97 c74 -79 51 -233 -42 -281
-37 -19 -144 -22 -177 -5 -20 11 -21 20 -21 154 0 99 4 148 13 160 16 21 108
26 163 9 23 -7 51 -24 64 -37z"/>
<path d="M2470 2469 c0 -14 7 -19 25 -19 14 0 37 -7 50 -16 l24 -16 0 -352 c1
-268 -2 -357 -12 -370 -12 -16 -32 -24 -69 -25 -11 -1 -18 -9 -18 -20 0 -17
11 -18 155 -18 144 0 155 1 155 19 0 11 -7 18 -20 18 -42 0 -68 21 -72 59 -8
60 -2 675 6 693 4 9 25 19 47 23 28 5 39 12 39 25 0 16 -13 18 -155 18 -145 0
-155 -1 -155 -19z"/>
<path d="M3207 2484 c-12 -12 6 -34 28 -34 12 0 36 -5 53 -11 l31 -11 -2 -358
c-2 -403 1 -387 -76 -397 -32 -4 -41 -10 -39 -22 3 -14 23 -16 143 -18 77 -1
146 0 152 2 15 5 6 35 -11 35 -28 0 -83 21 -85 33 -3 16 -7 657 -5 657 6 0
154 -212 154 -220 0 -4 4 -10 8 -12 5 -1 30 -34 57 -73 27 -38 77 -110 112
-158 35 -48 63 -92 63 -97 0 -4 4 -10 8 -12 4 -1 32 -38 62 -80 41 -59 59 -78
77 -78 13 0 23 6 23 13 0 6 1 179 1 382 0 204 4 380 9 393 5 12 15 22 22 22
32 0 89 22 85 33 -6 18 -307 19 -307 1 0 -12 56 -34 87 -34 6 0 15 -6 20 -12
10 -16 13 -558 3 -558 -4 0 -36 42 -71 93 -35 50 -67 97 -72 102 -16 19 -163
231 -227 327 l-65 97 -116 1 c-64 0 -118 -3 -122 -6z"/>
<path d="M4500 2469 c-7 -13 0 -18 40 -28 43 -11 49 -16 54 -44 6 -41 6 -661
-1 -688 -4 -13 -20 -24 -49 -31 -30 -8 -44 -18 -44 -29 0 -15 22 -17 237 -17
211 -1 243 1 297 19 64 21 149 73 182 111 27 32 69 102 66 111 -1 4 2 7 6 7
14 0 36 102 37 175 4 157 -62 283 -190 364 -90 57 -134 65 -393 66 -204 0
-235 -2 -242 -16z m485 -53 c133 -39 218 -188 210 -368 -5 -105 -12 -140 -39
-201 -26 -60 -61 -98 -121 -130 -34 -18 -56 -21 -145 -21 -136 0 -154 5 -167
47 -6 20 -10 156 -9 338 1 330 2 335 54 341 81 9 171 7 217 -6z"/>
<path d="M6865 2481 c-14 -14 0 -28 40 -40 25 -7 48 -18 52 -25 8 -12 12 -654
5 -694 -4 -19 -47 -53 -67 -52 -28 1 -34 -3 -32 -19 1 -18 11 -19 167 -17 91
0 164 4 163 9 -5 21 -10 27 -28 30 -64 12 -73 19 -80 55 -7 33 -9 123 -6 253
1 45 2 46 33 47 62 2 73 -9 220 -224 67 -99 177 -165 286 -172 58 -4 62 -3 62
17 0 12 -6 21 -15 21 -28 0 -92 41 -146 93 -56 54 -109 113 -109 121 0 3 -12
22 -26 43 -14 21 -33 53 -42 72 -16 34 -16 35 13 55 87 63 128 129 127 206 0
88 -44 150 -138 196 l-59 29 -208 0 c-114 1 -210 -1 -212 -4z m426 -74 c88
-58 100 -209 22 -279 -28 -26 -83 -45 -123 -42 -19 1 -44 3 -56 3 -11 1 -28 7
-38 14 -18 13 -18 17 -15 247 2 74 8 80 98 80 64 0 84 -4 112 -23z"/>
<path d="M1313 1199 c-13 -5 -31 -22 -41 -39 -17 -26 -19 -49 -17 -173 2 -178
0 -163 31 -192 38 -35 87 -34 125 4 16 16 29 35 30 43 0 7 2 21 4 31 2 12 -3
17 -21 17 -19 0 -24 -5 -24 -24 0 -49 -61 -75 -91 -39 -17 19 -22 250 -8 299
18 59 90 48 102 -14 4 -22 11 -30 24 -28 20 3 23 19 10 59 -16 48 -75 75 -124
56z"/>
<path d="M1791 1201 c-13 -4 -33 -19 -45 -34 -18 -25 -20 -43 -22 -175 -1
-152 5 -178 45 -209 39 -30 122 -3 139 44 5 16 9 93 9 172 l-1 144 -31 31
c-32 32 -52 38 -94 27z m58 -41 c19 0 28 -55 28 -175 1 -144 -9 -175 -53 -175
-51 0 -58 19 -59 177 -1 143 -1 145 24 164 13 11 31 17 39 14 7 -3 17 -5 21
-5z"/>
<path d="M2310 1202 c-6 -2 -10 -84 -10 -217 0 -197 1 -213 18 -211 15 3 17
16 20 100 3 94 4 97 25 96 52 -5 67 0 67 21 0 13 -6 20 -17 18 -10 -1 -30 -1
-46 0 l-27 1 2 77 3 78 65 0 c63 0 68 2 62 33 -2 7 -142 10 -162 4z"/>
<path d="M2794 1201 c-7 -8 -4 -431 4 -431 24 1 31 22 34 105 l3 90 43 3 c33
3 42 7 42 22 0 13 -7 19 -22 18 -69 -3 -68 -4 -68 76 0 83 0 83 77 80 38 -1
53 3 58 14 3 8 4 17 1 19 -6 6 -166 9 -172 4z"/>
<path d="M3279 1185 c0 -11 0 -38 0 -60 1 -22 1 -60 0 -85 -1 -77 -1 -175 1
-185 1 -5 1 -26 0 -46 l-1 -35 87 0 c75 1 87 3 90 19 2 18 -6 20 -93 19 l-43
-1 0 80 c0 58 3 79 13 78 6 -1 27 -1 45 0 24 1 32 6 32 20 0 13 -7 18 -27 19
-66 0 -63 -2 -62 60 1 31 0 62 -1 67 -6 26 4 30 67 30 55 0 66 3 69 18 1 9 -3
17 -9 17 -153 7 -167 5 -168 -15z"/>
<path d="M3820 1200 l-35 -5 -1 -200 c0 -110 1 -205 3 -211 3 -7 35 -11 89
-10 73 0 84 3 84 18 0 14 -11 18 -67 20 l-68 3 -1 65 c-1 86 2 91 43 88 21 -1
38 3 43 12 14 22 2 30 -41 27 -44 -4 -41 -9 -43 91 -1 69 -8 64 87 64 39 0 47
4 47 19 0 11 -3 19 -7 20 -44 3 -105 3 -133 -1z"/>
<path d="M4705 1202 c-50 -11 -79 -71 -63 -132 7 -23 32 -57 77 -100 67 -64
69 -67 62 -122 -2 -16 -35 -38 -57 -38 -19 0 -28 8 -39 32 -7 18 -11 36 -9 39
2 4 -4 10 -13 13 -41 16 -32 -63 12 -101 39 -34 87 -31 119 8 14 17 27 37 27
45 3 34 3 41 -3 70 -5 21 -26 48 -67 83 -77 67 -92 110 -54 154 30 33 71 11
82 -43 8 -40 34 -47 39 -12 9 64 -49 118 -113 104z"/>
<path d="M5766 1191 c-33 -20 -49 -64 -47 -131 1 -25 1 -64 -1 -85 0 -11 0
-48 1 -82 1 -54 5 -65 32 -92 41 -42 89 -42 130 -2 32 33 31 26 31 207 0 107
-3 136 -17 157 -27 42 -86 54 -129 28z m84 -39 c21 -17 22 -26 24 -157 1 -120
-1 -142 -17 -162 -43 -54 -98 -16 -97 67 0 32 0 55 0 78 -4 128 5 171 40 185
24 9 26 8 50 -11z"/>
<path d="M6250 1200 l-45 -5 0 -209 c0 -189 2 -209 17 -212 22 -3 26 15 25
104 -2 77 5 93 38 88 61 -9 107 42 107 120 0 86 -49 125 -142 114z m85 -58
c19 -32 22 -58 11 -93 -9 -28 -18 -36 -48 -43 -21 -5 -41 -6 -45 -3 -10 11
-11 140 -1 153 12 16 71 7 83 -14z"/>
<path d="M5152 986 c1 -203 2 -214 19 -213 12 1 19 9 20 24 0 13 1 56 2 96 l2
72 50 0 50 0 1 -90 c2 -110 0 -104 22 -101 16 3 17 21 17 212 0 202 -1 209
-20 212 -20 3 -21 -2 -20 -90 l1 -93 -31 -5 c-63 -11 -72 -4 -73 58 -1 132 -1
132 -21 132 -18 0 -19 -10 -19 -214z"/>
</g>
</svg>
